<?xml version="1.0" standalone="no"?>
<!DOCTYPE svg PUBLIC "-//W3C//DTD SVG 20010904//EN"
 "http://www.w3.org/TR/2001/REC-SVG-20010904/DTD/svg10.dtd">
<svg version="1.0" xmlns="http://www.w3.org/2000/svg"
 width="64.000000pt" height="64.000000pt" viewBox="0 0 64.000000 64.000000"
 preserveAspectRatio="xMidYMid meet">

<g transform="translate(0.000000,64.000000) scale(0.100000,-0.100000)"
fill="#000000" stroke="none">
<path d="M244 466 c-48 -48 -48 -104 0 -152 28 -28 42 -34 76 -34 34 0 48 6
76 34 28 28 34 42 34 76 0 60 -50 110 -110 110 -34 0 -48 -6 -76 -34z m115 -1
c16 -8 34 -28 41 -45 28 -67 -44 -138 -111 -110 -44 19 -66 68 -49 110 12 29
50 59 78 60 7 0 26 -7 41 -15z"/>
<path d="M225 211 c-39 -17 -105 -81 -105 -101 0 -20 21 -9 52 26 81 92 199
96 287 8 24 -24 48 -44 52 -44 34 0 -37 81 -95 109 -53 26 -136 27 -191 2z"/>
</g>
</svg>
